<?xml version="1.0" encoding="UTF-8" standalone="no"?>
<!-- Created with Inkscape (http://www.inkscape.org/) -->

<svg
   xmlns:dc="http://purl.org/dc/elements/1.1/"
   xmlns:cc="http://creativecommons.org/ns#"
   xmlns:rdf="http://www.w3.org/1999/02/22-rdf-syntax-ns#"
   xmlns:svg="http://www.w3.org/2000/svg"
   xmlns="http://www.w3.org/2000/svg"
   xmlns:xlink="http://www.w3.org/1999/xlink"
   xmlns:sodipodi="http://sodipodi.sourceforge.net/DTD/sodipodi-0.dtd"
   xmlns:inkscape="http://www.inkscape.org/namespaces/inkscape"
   width="128"
   height="64"
   viewBox="0 0 128 64.000002"
   id="svg18267"
   version="1.1"
   inkscape:version="0.91 r13725"
   sodipodi:docname="keys.svg"
   inkscape:export-filename="/home/username/workingdirs/ld37/app/assets/keys.png"
   inkscape:export-xdpi="90"
   inkscape:export-ydpi="90">
  <defs
     id="defs18269">
    <linearGradient
       inkscape:collect="always"
       id="linearGradient18817">
      <stop
         style="stop-color:#808080;stop-opacity:1;"
         offset="0"
         id="stop18819" />
      <stop
         style="stop-color:#ffffff;stop-opacity:1"
         offset="1"
         id="stop18821" />
    </linearGradient>
    <linearGradient
       inkscape:collect="always"
       xlink:href="#linearGradient18817"
       id="linearGradient18823"
       x1="-12.904699"
       y1="1059.877"
       x2="63.289474"
       y2="982.44867"
       gradientUnits="userSpaceOnUse"
       gradientTransform="translate(-15.556349,21.74013)" />
    <linearGradient
       inkscape:collect="always"
       xlink:href="#linearGradient18817"
       id="linearGradient18823-1"
       x1="-12.904699"
       y1="1059.877"
       x2="63.289474"
       y2="982.44867"
       gradientUnits="userSpaceOnUse"
       gradientTransform="translate(16.44365,21.74015)" />
    <linearGradient
       inkscape:collect="always"
       xlink:href="#linearGradient18817"
       id="linearGradient18823-8"
       x1="-12.904699"
       y1="1059.877"
       x2="63.289474"
       y2="982.44867"
       gradientUnits="userSpaceOnUse"
       gradientTransform="translate(48.44365,21.74021)" />
    <linearGradient
       inkscape:collect="always"
       xlink:href="#linearGradient18817"
       id="linearGradient18823-4"
       x1="-12.904699"
       y1="1059.877"
       x2="63.289474"
       y2="982.44867"
       gradientUnits="userSpaceOnUse"
       gradientTransform="translate(80.44365,21.740146)" />
    <linearGradient
       inkscape:collect="always"
       xlink:href="#linearGradient18817"
       id="linearGradient18823-0"
       x1="-12.904699"
       y1="1059.877"
       x2="63.289474"
       y2="982.44867"
       gradientUnits="userSpaceOnUse"
       gradientTransform="translate(48.443651,-10.259852)" />
  </defs>
  <sodipodi:namedview
     id="base"
     pagecolor="#ffffff"
     bordercolor="#666666"
     borderopacity="1.0"
     inkscape:pageopacity="0.0"
     inkscape:pageshadow="2"
     inkscape:zoom="5.6568542"
     inkscape:cx="66.258657"
     inkscape:cy="41.281697"
     inkscape:document-units="px"
     inkscape:current-layer="layer1"
     showgrid="false"
     units="px"
     inkscape:window-width="1278"
     inkscape:window-height="1003"
     inkscape:window-x="0"
     inkscape:window-y="19"
     inkscape:window-maximized="1" />
  <metadata
     id="metadata18272">
    <rdf:RDF>
      <cc:Work
         rdf:about="">
        <dc:format>image/svg+xml</dc:format>
        <dc:type
           rdf:resource="http://purl.org/dc/dcmitype/StillImage" />
        <dc:title></dc:title>
      </cc:Work>
    </rdf:RDF>
  </metadata>
  <g
     inkscape:label="Layer 1"
     inkscape:groupmode="layer"
     id="layer1"
     transform="translate(0,-988.3622)">
    <rect
       style="fill:url(#linearGradient18823);fill-opacity:1;fill-rule:nonzero;stroke:none;stroke-width:2.5;stroke-linecap:round;stroke-miterlimit:4;stroke-dasharray:none;stroke-opacity:1"
       id="rect18815"
       width="32"
       height="32"
       x="0"
       y="1020.3622"
       ry="6.1871843" />
    <rect
       style="fill:url(#linearGradient18823-1);fill-opacity:1;fill-rule:nonzero;stroke:none;stroke-width:2.5;stroke-linecap:round;stroke-miterlimit:4;stroke-dasharray:none;stroke-opacity:1"
       id="rect18815-7"
       width="32"
       height="32"
       x="32"
       y="1020.3622"
       ry="6.1871843" />
    <rect
       style="fill:url(#linearGradient18823-8);fill-opacity:1;fill-rule:nonzero;stroke:none;stroke-width:2.5;stroke-linecap:round;stroke-miterlimit:4;stroke-dasharray:none;stroke-opacity:1"
       id="rect18815-3"
       width="32"
       height="32"
       x="64"
       y="1020.3622"
       ry="6.1871843" />
    <rect
       style="fill:url(#linearGradient18823-4);fill-opacity:1;fill-rule:nonzero;stroke:none;stroke-width:2.5;stroke-linecap:round;stroke-miterlimit:4;stroke-dasharray:none;stroke-opacity:1"
       id="rect18815-2"
       width="32"
       height="32"
       x="96"
       y="1020.3622"
       ry="6.1871843" />
    <rect
       style="fill:url(#linearGradient18823-0);fill-opacity:1;fill-rule:nonzero;stroke:none;stroke-width:2.5;stroke-linecap:round;stroke-miterlimit:4;stroke-dasharray:none;stroke-opacity:1"
       id="rect18815-6"
       width="32"
       height="32"
       x="64"
       y="988.36218"
       ry="6.1871843" />
    <text
       xml:space="preserve"
       style="font-style:normal;font-weight:normal;font-size:23.0028801px;line-height:125%;font-family:sans-serif;letter-spacing:0px;word-spacing:0px;fill:#000000;fill-opacity:1;stroke:none;stroke-width:1px;stroke-linecap:butt;stroke-linejoin:miter;stroke-opacity:1"
       x="8.2844362"
       y="1044.7607"
       id="text18882"
       sodipodi:linespacing="125%"><tspan
         sodipodi:role="line"
         id="tspan18884"
         x="8.2844362"
         y="1044.7607">X</tspan></text>
    <path
       style="fill:#000000;fill-opacity:1;fill-rule:nonzero;stroke:none;stroke-width:2.5;stroke-linecap:round;stroke-miterlimit:4;stroke-dasharray:none;stroke-opacity:1"
       id="path18890"
       d="m 56.681017,1038.8969 c -0.162387,0.026 -0.445043,0.066 -0.646959,0.092 -0.583289,0.086 -1.169939,0.1442 -1.757298,0.1932 -0.808065,0.061 -1.617258,0.1047 -2.42656,0.145 -0.905899,0.047 -1.812426,0.078 -2.719019,0.1068 -0.953609,0.049 -1.907621,0.051 -2.862101,0.046 -0.914403,-0.016 -1.828639,-0.039 -2.742942,-0.06 -0.769724,-0.011 -1.538845,-0.041 -2.307912,-0.073 -0.66382,-0.029 -1.327683,-0.056 -1.991742,-0.079 -0.632508,-0.022 -1.265109,-0.039 -1.8973,-0.069 -0.09906,-0.01 -0.198113,-0.01 -0.29717,-0.015 0,0 0.16577,-3.0763 0.16577,-3.0763 l 0,0 c 0.09647,0.01 0.192934,0.011 0.289401,0.017 0.618241,0.034 1.236987,0.053 1.855756,0.075 0.672474,0.028 1.345056,0.054 2.017191,0.089 0.749341,0.039 1.498618,0.079 2.248842,0.097 0.89271,0.029 1.785423,0.06 2.678508,0.075 0.913123,0.01 1.825797,-0.01 2.738238,-0.045 0.887609,-0.034 1.775057,-0.072 2.662024,-0.12 0.767258,-0.044 1.53473,-0.09 2.299439,-0.1682 0.503347,-0.054 1.007806,-0.1089 1.503865,-0.2127 0.189987,-0.041 0.381563,-0.074 0.567449,-0.1308 0,0 0.62252,3.1126 0.62252,3.1126 z"
       inkscape:connector-curvature="0" />
    <path
       style="fill:#000000;fill-opacity:1;fill-rule:nonzero;stroke:none;stroke-width:2.5;stroke-linecap:round;stroke-miterlimit:4;stroke-dasharray:none;stroke-opacity:1"
       id="path18892"
       d="m 35.775844,1036.4979 c 0.124836,-0.1919 0.281579,-0.3594 0.423225,-0.5385 0.202505,-0.251 0.394822,-0.5098 0.59875,-0.7596 0.210649,-0.2517 0.429153,-0.4967 0.643801,-0.745 0.237282,-0.2749 0.480822,-0.5443 0.73435,-0.8044 0.231224,-0.2437 0.471901,-0.4778 0.714238,-0.7104 0.239833,-0.228 0.492868,-0.4413 0.740246,-0.6609 0.227439,-0.2079 0.441673,-0.4291 0.656491,-0.6498 0.266912,-0.274 0.548501,-0.5336 0.838126,-0.7834 0.03774,-0.033 0.07548,-0.066 0.11322,-0.099 0,0 2.04954,2.3606 2.04954,2.3606 l 0,0 c -0.04372,0.038 -0.08744,0.075 -0.131165,0.1133 -0.220818,0.1864 -0.433232,0.3833 -0.6348,0.5903 -0.261866,0.2673 -0.523221,0.535 -0.799227,0.7879 -0.222229,0.2027 -0.450838,0.3982 -0.6713,0.6028 -0.218429,0.2079 -0.435524,0.417 -0.643172,0.6358 -0.207593,0.2101 -0.403562,0.4314 -0.596083,0.6553 -0.198941,0.2325 -0.403076,0.4604 -0.599228,0.6953 -0.177851,0.2126 -0.336407,0.4404 -0.507218,0.6586 -0.06929,0.095 -0.140964,0.1881 -0.209346,0.2835 -0.02097,0.029 -0.0809,0.1192 -0.06009,0.09 0.02088,-0.029 0.04039,-0.06 0.06058,-0.09 0,0 -2.720935,-1.6326 -2.720935,-1.6326 z"
       inkscape:connector-curvature="0" />
    <path
       style="fill:#000000;fill-opacity:1;fill-rule:nonzero;stroke:none;stroke-width:2.5;stroke-linecap:round;stroke-miterlimit:4;stroke-dasharray:none;stroke-opacity:1"
       id="path18894"
       d="m 39.203886,1036.8955 c 0.05531,0.114 0.110964,0.2258 0.183168,0.3297 0.189703,0.2824 0.420889,0.5324 0.654119,0.7787 0.325722,0.3399 0.658945,0.6725 0.985906,1.0112 0.325769,0.3275 0.647194,0.6592 0.964942,0.9945 0.32602,0.3415 0.649667,0.685 0.963865,1.0374 0.157998,0.1765 0.309668,0.3585 0.461741,0.54 0,0 -2.381999,1.9931 -2.381999,1.9931 l 0,0 c -0.132747,-0.1588 -0.264187,-0.3189 -0.402379,-0.473 -0.28952,-0.3286 -0.591336,-0.6458 -0.893791,-0.9624 -0.312809,-0.3299 -0.62866,-0.6568 -0.947542,-0.9808 -0.327913,-0.3428 -0.665912,-0.6758 -0.995006,-1.0174 -0.326825,-0.3401 -0.646692,-0.687 -0.9336,-1.062 -0.135422,-0.1786 -0.26902,-0.3664 -0.380359,-0.5565 0,0 2.720935,-1.6325 2.720935,-1.6325 z"
       inkscape:connector-curvature="0" />
    <path
       style="fill:#000000;fill-opacity:1;fill-rule:nonzero;stroke:none;stroke-width:2.5;stroke-linecap:round;stroke-miterlimit:4;stroke-dasharray:none;stroke-opacity:1"
       id="path18896"
       d="m 80.532778,996.55591 c 0.06512,0.24978 0.11928,0.5025 0.16786,0.756 0.08207,0.50623 0.117498,1.01845 0.159542,1.52914 0.04525,0.64686 0.07772,1.29455 0.101339,1.94255 0.02907,0.7628 0.05228,1.5258 0.07746,2.2888 0.02449,0.7407 0.04313,1.4815 0.06285,2.2224 0.01957,0.675 0.03812,1.3499 0.04016,2.0253 2.66e-4,0.5852 -0.0042,1.1705 -0.0078,1.7558 -0.0037,0.5406 -0.0063,1.0812 -0.0083,1.6219 -0.0017,0.4944 -0.0031,0.9889 -0.0045,1.4833 -0.0012,0.4554 -0.0022,0.9108 -0.0032,1.3662 0.0015,0.3341 0.0042,0.6683 0.01366,1.0022 0,0 -3.14179,-0.017 -3.14179,-0.017 l 0,0 c 0.01326,-0.3323 0.01825,-0.6648 0.02251,-0.9973 0.0027,-0.4566 0.0056,-0.9132 0.0091,-1.3697 0.0038,-0.4959 0.0078,-0.9917 0.01249,-1.4875 0.0051,-0.5423 0.0099,-1.0847 0.01501,-1.627 0.0059,-0.578 0.01261,-1.1559 0.01832,-1.7339 0.0036,-0.6499 -0.0092,-1.2996 -0.02304,-1.9494 -0.01531,-0.7335 -0.03381,-1.467 -0.05479,-2.2004 -0.02169,-0.7474 -0.04717,-1.4948 -0.08537,-2.2415 -0.03453,-0.607 -0.06772,-1.21426 -0.123933,-1.81971 -0.03493,-0.38858 -0.06874,-0.77882 -0.147569,-1.16148 -0.0029,-0.0121 -0.137443,-0.53074 -0.109639,-0.38521 0,0 3.009583,-1.00319 3.009583,-1.00319 z"
       inkscape:connector-curvature="0" />
    <path
       style="fill:#000000;fill-opacity:1;fill-rule:nonzero;stroke:none;stroke-width:2.5;stroke-linecap:round;stroke-miterlimit:4;stroke-dasharray:none;stroke-opacity:1"
       id="path18902"
       d="m 80.685441,996.62868 c 0.176876,0.20107 0.03835,0.053 0.214077,0.2357 0.172246,0.1742 0.348261,0.34478 0.524299,0.51516 0.317078,0.30985 0.629012,0.6249 0.952164,0.92847 0.310186,0.29957 0.629505,0.58913 0.96018,0.86586 0.356038,0.29261 0.732413,0.55902 1.101434,0.83473 0.362436,0.2685 0.719388,0.5441 1.080765,0.814 0.308543,0.2404 0.630311,0.4625 0.965257,0.6643 0.17077,0.094 0.08186,0.045 0.266735,0.1473 0,0 -1.555333,2.7077 -1.555333,2.7077 l 0,0 c -0.222041,-0.132 -0.103248,-0.061 -0.356285,-0.2126 -0.403672,-0.2575 -0.800595,-0.5251 -1.178307,-0.8199 -0.364667,-0.2725 -0.725909,-0.5495 -1.088835,-0.8243 -0.406329,-0.3092 -0.821904,-0.6064 -1.219102,-0.9274 -0.380138,-0.3149 -0.746372,-0.6455 -1.099314,-0.9907 -0.323095,-0.3038 -0.641303,-0.61266 -0.966214,-0.9144 -0.203548,-0.18554 -0.415327,-0.36188 -0.614141,-0.55256 -0.03791,-0.0362 -0.510877,-0.5068 -0.232825,-0.22591 0,0 2.245445,-2.24545 2.245445,-2.24545 z"
       inkscape:connector-curvature="0" />
    <path
       style="fill:#000000;fill-opacity:1;fill-rule:nonzero;stroke:none;stroke-width:2.5;stroke-linecap:round;stroke-miterlimit:4;stroke-dasharray:none;stroke-opacity:1"
       id="path18904"
       d="m 80.98284,998.35457 c -0.212473,0.27321 -0.483331,0.48627 -0.764302,0.68446 -0.391046,0.28675 -0.76383,0.59738 -1.135973,0.90797 -0.361432,0.3129 -0.714377,0.6358 -1.05681,0.9694 -0.326665,0.3007 -0.633185,0.6209 -0.936065,0.9451 -0.274501,0.3047 -0.55829,0.6011 -0.827736,0.9104 -0.252984,0.281 -0.508315,0.5597 -0.757072,0.8445 -0.212619,0.2369 -0.421833,0.4773 -0.618928,0.7273 -0.193098,0.2417 -0.366456,0.4982 -0.548639,0.748 -0.02491,0.036 -0.04982,0.072 -0.07472,0.1075 0,0 -2.548785,-1.8151 -2.548785,-1.8151 l 0,0 c 0.03442,-0.048 0.06883,-0.095 0.103248,-0.1424 0.208982,-0.2821 0.405664,-0.5734 0.626389,-0.8467 0.231001,-0.2873 0.471105,-0.5675 0.719797,-0.8397 0.251205,-0.2836 0.507529,-0.5624 0.76395,-0.8413 0.294394,-0.3311 0.60101,-0.651 0.900978,-0.97709 0.339514,-0.35936 0.680719,-0.71684 1.046882,-1.04958 0.398306,-0.3813 0.807202,-0.7515 1.227155,-1.10887 0.411079,-0.3443 0.82484,-0.68539 1.234868,-1.03094 0.20918,-0.17193 0.08617,-0.0539 0.106255,-0.0976 0,0 2.539511,1.90463 2.539511,1.90463 z"
       inkscape:connector-curvature="0" />
    <path
       style="fill:#000000;fill-opacity:1;fill-rule:nonzero;stroke:none;stroke-width:2.5;stroke-linecap:round;stroke-miterlimit:4;stroke-dasharray:none;stroke-opacity:1"
       id="path18906"
       d="m 81.278187,1027.9467 c 0.0263,-0.2835 -0.06592,0.4183 -0.08503,0.5961 -0.06337,0.8845 -0.141491,1.7678 -0.218133,2.6512 -0.08455,0.8986 -0.143271,1.799 -0.191256,2.7001 -0.04016,0.7722 -0.07349,1.5447 -0.107594,2.3171 -0.02972,0.7024 -0.05811,1.4048 -0.08312,2.1074 -0.02364,0.6813 -0.03973,1.3628 -0.05568,2.0442 -0.01385,0.5969 -0.02594,1.1939 -0.03736,1.7908 -0.0105,0.5364 -0.0174,1.0728 -0.03028,1.6091 -0.01024,0.5379 -0.01546,1.0758 -0.02087,1.6138 -3.14e-4,0.082 -6.28e-4,0.165 -9.42e-4,0.2474 0,0 -3.096356,-0.04 -3.096356,-0.04 l 0,0 c 0.0018,-0.082 0.0036,-0.165 0.0054,-0.2475 0.0086,-0.5421 0.01809,-1.0842 0.02563,-1.6264 0.0055,-0.5423 0.02023,-1.0845 0.03408,-1.6266 0.01586,-0.6018 0.0327,-1.2036 0.05173,-1.8052 0.02181,-0.6886 0.04523,-1.3771 0.06763,-2.0656 0.02413,-0.7152 0.05024,-1.4302 0.08762,-2.1448 0.03896,-0.7839 0.08352,-1.5675 0.131827,-2.3509 0.05905,-0.9286 0.12893,-1.8563 0.213597,-2.7829 0.07321,-0.8496 0.146287,-1.7001 0.14269,-2.5536 0.0034,-0.3525 0.006,-0.7064 0.05378,-1.0563 0,0 3.112598,0.6225 3.112598,0.6225 z"
       inkscape:connector-curvature="0" />
    <path
       style="fill:#000000;fill-opacity:1;fill-rule:nonzero;stroke:none;stroke-width:2.5;stroke-linecap:round;stroke-miterlimit:4;stroke-dasharray:none;stroke-opacity:1"
       id="path18908"
       d="m 77.232302,1043.9677 c -0.004,0.01 -0.01712,0.027 -0.01189,0.021 0.112057,-0.1311 0.210402,-0.2775 0.317884,-0.4123 0.188605,-0.2167 0.39059,-0.4206 0.570866,-0.6445 0.284554,-0.344 0.557923,-0.697 0.82984,-1.051 0.280438,-0.3683 0.570303,-0.7292 0.865476,-1.0858 0.274019,-0.3393 0.56294,-0.6665 0.863316,-0.9827 0.271056,-0.2883 0.547403,-0.5711 0.839859,-0.8377 0.298117,-0.2676 0.62747,-0.4957 0.95351,-0.727 0.190245,-0.1426 0.379928,-0.2859 0.565368,-0.4347 0,0 1.945201,2.4497 1.945201,2.4497 l 0,0 c -0.233052,0.1837 -0.469248,0.3634 -0.709315,0.538 -0.225263,0.1582 -0.453365,0.3131 -0.662877,0.4923 -0.240276,0.2128 -0.459862,0.4471 -0.683247,0.6773 -0.254002,0.2607 -0.494207,0.5348 -0.72542,0.8158 -0.273245,0.3244 -0.538593,0.6552 -0.795489,0.9928 -0.27553,0.3546 -0.552649,0.7081 -0.82448,1.0657 -0.179879,0.2361 -0.364211,0.4687 -0.567703,0.6852 -0.08418,0.1092 -0.154932,0.228 -0.231387,0.3425 0,0 -2.539512,-1.9046 -2.539512,-1.9046 z"
       inkscape:connector-curvature="0" />
    <path
       style="fill:#000000;fill-opacity:1;fill-rule:nonzero;stroke:none;stroke-width:2.5;stroke-linecap:round;stroke-miterlimit:4;stroke-dasharray:none;stroke-opacity:1"
       id="path18910"
       d="m 77.706478,1045.8703 c -0.09099,-0.1024 -0.185394,-0.2019 -0.279062,-0.3019 -0.209421,-0.2265 -0.425181,-0.4466 -0.647505,-0.6604 -0.244337,-0.2362 -0.485532,-0.4759 -0.737453,-0.7041 -0.237519,-0.2219 -0.48277,-0.4354 -0.730251,-0.646 -0.24906,-0.2144 -0.494223,-0.4332 -0.741665,-0.6494 -0.228171,-0.2 -0.462352,-0.3929 -0.694418,-0.5884 -0.276386,-0.2441 -0.545376,-0.4964 -0.820324,-0.7421 -0.242419,-0.2203 -0.495146,-0.4285 -0.747457,-0.6372 0,0 1.997254,-2.4019 1.997254,-2.4019 l 0,0 c 0.281471,0.2355 0.563123,0.4707 0.835522,0.7168 0.246733,0.2224 0.490356,0.4483 0.740987,0.6664 0.252766,0.2099 0.505136,0.4204 0.752825,0.6363 0.236463,0.2086 0.471121,0.4193 0.708998,0.6263 0.270929,0.233 0.541192,0.467 0.801469,0.7119 0.270228,0.2474 0.532104,0.5034 0.793803,0.7597 0.238548,0.2283 0.475522,0.458 0.710825,0.6895 0.100003,0.094 0.199464,0.1881 0.301897,0.2791 0,0 -2.245445,2.2454 -2.245445,2.2454 z"
       inkscape:connector-curvature="0" />
    <path
       style="fill:#000000;fill-opacity:1;fill-rule:nonzero;stroke:none;stroke-width:2.5;stroke-linecap:round;stroke-miterlimit:4;stroke-dasharray:none;stroke-opacity:1"
       id="path18912"
       d="m 101.66861,1035.3954 c 0.17535,0.013 0.35138,0.014 0.52711,0.019 0.42521,0.01 0.85041,0.019 1.27568,0.024 0.59484,0.01 1.18974,-0.011 1.78431,-0.028 0.59559,-0.02 1.19153,-0.025 1.78718,-0.043 0.60453,-0.024 1.20728,-0.074 1.80984,-0.127 0.61796,-0.054 1.2362,-0.1038 1.85563,-0.1371 0.58,-0.027 1.16037,-0.045 1.74072,-0.063 0.53087,-0.017 1.06192,-0.027 1.59291,-0.039 0.49631,-0.011 0.99265,-0.021 1.489,-0.03 0.47499,-0.01 0.95,-0.014 1.42502,-0.02 0.45574,-0.01 0.91148,-0.011 1.36724,-0.016 0.44476,-0.01 0.88955,-0.01 1.33433,-0.01 0.46378,-8e-4 0.92755,-0 1.39132,-0.01 0.43778,-0 0.87557,-0.01 1.31335,-0.01 0,0 0.011,3.1084 0.011,3.1084 l 0,0 c -0.43669,9e-4 -0.87337,0 -1.31006,0 -0.46198,0 -0.92397,0 -1.38593,0.01 -0.44195,0 -0.8839,0.01 -1.32586,0.011 -0.45294,0 -0.90587,0.01 -1.35879,0.011 -0.47055,0.01 -0.94111,0.011 -1.41164,0.018 -0.49193,0.01 -0.98386,0.014 -1.47576,0.023 -0.52368,0.01 -1.04727,0.022 -1.57089,0.035 -0.55521,0.014 -1.11047,0.027 -1.66537,0.05 -0.58659,0.03 -1.17181,0.081 -1.75725,0.1277 -0.65533,0.053 -1.31088,0.1048 -1.96772,0.1359 -0.60369,0.022 -1.20777,0.031 -1.81168,0.045 -0.62029,0.014 -1.24049,0.033 -1.86093,0.039 -0.42527,0.01 -0.85047,0.015 -1.27568,0.024 -0.17573,0 -0.35176,0.01 -0.52711,0.019 0,0 0,-3.1744 0,-3.1744 z"
       inkscape:connector-curvature="0" />
    <path
       style="fill:#000000;fill-opacity:1;fill-rule:nonzero;stroke:none;stroke-width:2.5;stroke-linecap:round;stroke-miterlimit:4;stroke-dasharray:none;stroke-opacity:1"
       id="path18914"
       d="m 121.28833,1037.4712 c -0.26455,-0.2603 -0.50829,-0.5417 -0.75564,-0.8184 -0.38773,-0.4383 -0.78877,-0.865 -1.20121,-1.2802 -0.42188,-0.4141 -0.84751,-0.8243 -1.2796,-1.2277 -0.42887,-0.3929 -0.86293,-0.7795 -1.30288,-1.1599 -0.41575,-0.3501 -0.82944,-0.7027 -1.24963,-1.0475 -0.37988,-0.3166 -0.76238,-0.63 -1.14776,-0.9399 -0.34952,-0.2852 -0.71079,-0.5557 -1.07412,-0.823 0,0 1.84426,-2.4945 1.84426,-2.4945 l 0,0 c 0.39681,0.2947 0.79212,0.5918 1.17411,0.9056 0.39448,0.3188 0.78584,0.6415 1.17229,0.97 0.43626,0.363 0.86702,0.7324 1.29758,1.1021 0.46733,0.4059 0.93024,0.8164 1.38366,1.2379 0.46319,0.4315 0.92037,0.8694 1.37068,1.3143 0.42724,0.4344 0.84218,0.8806 1.26886,1.3155 0.16943,0.1715 0.35033,0.4151 0.56052,0.5418 0.0127,0.01 -0.0211,-0.021 -0.0317,-0.031 0,0 -2.02946,2.4354 -2.02946,2.4354 z"
       inkscape:connector-curvature="0" />
    <path
       style="fill:#000000;fill-opacity:1;fill-rule:nonzero;stroke:none;stroke-width:2.5;stroke-linecap:round;stroke-miterlimit:4;stroke-dasharray:none;stroke-opacity:1"
       id="path18916"
       d="m 123.23247,1037.599 c -0.13514,0.1649 -0.29519,0.3058 -0.44248,0.4595 -0.23088,0.2361 -0.46276,0.4706 -0.68532,0.7146 -0.25582,0.2745 -0.50543,0.5547 -0.76286,0.8277 -0.26457,0.286 -0.54686,0.5545 -0.80923,0.8425 -0.25714,0.2818 -0.51512,0.5629 -0.77062,0.8462 -0.248,0.2729 -0.49771,0.5443 -0.75071,0.8125 -0.23963,0.2454 -0.47579,0.494 -0.70971,0.7449 -0.24987,0.2612 -0.49597,0.526 -0.75396,0.7794 -0.2384,0.2379 -0.48773,0.4646 -0.73426,0.6941 -0.25977,0.2395 -0.51838,0.4803 -0.77896,0.719 -0.16131,0.1568 -0.33196,0.3035 -0.49976,0.4533 0,0 -2.07569,-2.3382 -2.07569,-2.3382 l 0,0 c 0.15835,-0.1399 0.31926,-0.2769 0.47127,-0.4239 0.25076,-0.2272 0.49974,-0.4564 0.74644,-0.688 0.2308,-0.2181 0.46401,-0.4339 0.69075,-0.6563 0.22385,-0.2147 0.43223,-0.4448 0.6488,-0.6667 0.24031,-0.2586 0.48508,-0.513 0.73023,-0.767 0.23919,-0.2501 0.47449,-0.504 0.70729,-0.76 0.26103,-0.2856 0.52426,-0.5691 0.78639,-0.8537 0.27452,-0.2975 0.56118,-0.5833 0.8361,-0.8804 0.24376,-0.2568 0.47488,-0.5252 0.71859,-0.7821 0.22668,-0.2508 0.46288,-0.4925 0.68679,-0.7458 0.0273,-0.031 0.46734,-0.532 0.2114,-0.2362 0,0 2.53951,1.9046 2.53951,1.9046 z"
       inkscape:connector-curvature="0" />
  </g>
</svg>
