<?xml version="1.0" encoding="UTF-8" standalone="no"?>
<!-- Created with Inkscape (http://www.inkscape.org/) -->

<svg
   xmlns:dc="http://purl.org/dc/elements/1.1/"
   xmlns:cc="http://creativecommons.org/ns#"
   xmlns:rdf="http://www.w3.org/1999/02/22-rdf-syntax-ns#"
   xmlns:svg="http://www.w3.org/2000/svg"
   xmlns="http://www.w3.org/2000/svg"
   xmlns:sodipodi="http://sodipodi.sourceforge.net/DTD/sodipodi-0.dtd"
   xmlns:inkscape="http://www.inkscape.org/namespaces/inkscape"
   width="48"
   height="48"
   viewBox="0 0 48 48.000001"
   id="svg4587"
   version="1.1"
   inkscape:version="0.91 r13725"
   sodipodi:docname="player.svg"
   inkscape:export-filename="/home/username/workingdirs/ld37/app/assets/player.png"
   inkscape:export-xdpi="90"
   inkscape:export-ydpi="90">
  <defs
     id="defs4589" />
  <sodipodi:namedview
     id="base"
     pagecolor="#ffffff"
     bordercolor="#666666"
     borderopacity="1.0"
     inkscape:pageopacity="0.0"
     inkscape:pageshadow="2"
     inkscape:zoom="16"
     inkscape:cx="24.471704"
     inkscape:cy="24.147227"
     inkscape:document-units="px"
     inkscape:current-layer="layer1"
     showgrid="true"
     units="px"
     inkscape:window-width="1278"
     inkscape:window-height="1003"
     inkscape:window-x="0"
     inkscape:window-y="19"
     inkscape:window-maximized="1"
     showguides="true">
    <inkscape:grid
       type="xygrid"
       id="grid17521" />
  </sodipodi:namedview>
  <metadata
     id="metadata4592">
    <rdf:RDF>
      <cc:Work
         rdf:about="">
        <dc:format>image/svg+xml</dc:format>
        <dc:type
           rdf:resource="http://purl.org/dc/dcmitype/StillImage" />
        <dc:title></dc:title>
      </cc:Work>
    </rdf:RDF>
  </metadata>
  <g
     inkscape:label="Layer 1"
     inkscape:groupmode="layer"
     id="layer1"
     transform="translate(0,-1004.3622)">
    <path
       style="fill:#efefef;fill-rule:evenodd;stroke:none;stroke-width:1px;stroke-linecap:butt;stroke-linejoin:miter;stroke-opacity:1;fill-opacity:1"
       d="m 21,1018.3622 -3,-5 1,-5 4,-2 7,3 0,7 -3,3 z"
       id="path17543"
       inkscape:connector-curvature="0" />
    <path
       style="fill:#000000;fill-opacity:1;fill-rule:nonzero;stroke:none;stroke-width:0.99921262;stroke-linecap:round;stroke-miterlimit:4;stroke-dasharray:none;stroke-opacity:1"
       id="path17541"
       d="m 12.591439,1021.37 c -5.2e-4,0 -10e-4,0.01 -0.0016,0.013 -0.0017,-0.01 -8.07e-4,0.049 -0.0021,0.037 -0.0064,-0.062 -0.0022,-0.05 -1.08e-4,-0.012 -2.52e-4,0.03 0.0052,0.056 0.0093,0.075 0.01546,0.069 0.03386,0.1381 0.05474,0.2061 0.02521,0.082 0.05536,0.1622 0.08554,0.2423 0.02556,0.071 0.05875,0.139 0.09237,0.2065 0.04616,0.095 0.09509,0.1889 0.146362,0.2814 0.06658,0.1206 0.127884,0.2439 0.190481,0.3666 0.06171,0.1208 0.125571,0.2406 0.190229,0.3599 0.06298,0.1128 0.127489,0.2247 0.194816,0.335 0.07316,0.1161 0.146322,0.2322 0.222838,0.3462 0.07868,0.124 0.158822,0.2471 0.244337,0.3666 0.07335,0.098 0.149343,0.1947 0.22721,0.2895 0.07346,0.086 0.149871,0.1692 0.231425,0.2476 0.09509,0.089 0.200599,0.1653 0.305414,0.2421 0.130303,0.09 0.263965,0.1735 0.400977,0.2524 0.157552,0.094 0.321923,0.1761 0.489159,0.2516 0.193466,0.081 0.391455,0.1503 0.589505,0.2189 0.204352,0.071 0.4109,0.1351 0.6196,0.1921 0.216533,0.057 0.436284,0.1017 0.656263,0.1437 0.214951,0.041 0.431134,0.075 0.647645,0.1066 0.218501,0.031 0.438738,0.047 0.658668,0.064 0.223794,0.018 0.447893,0.031 0.672022,0.043 0.215885,0.013 0.431969,0.022 0.648066,0.031 0.20555,0.01 0.411238,0.015 0.616888,0.022 0.191234,0.01 0.382455,0.012 0.573821,0.012 0.178176,-0.01 0.356332,-0.011 0.534467,-0.018 0.189031,-0.01 0.378054,-0.011 0.56708,-0.017 0.183299,-0 0.366591,-0.01 0.549884,-0.013 0.15972,-0.01 0.319336,-0.016 0.478998,-0.024 0.159498,-0.01 0.319055,-0.015 0.478631,-0.021 0.150461,-0.01 0.300961,-0.011 0.451471,-0.015 0.07254,-0 0.14508,-0 0.217624,-0.01 0,0 0.04643,1.8948 0.04643,1.8948 l 0,0 c -0.07019,0 -0.14039,0 -0.21058,0.01 -0.144934,0 -0.289861,0.01 -0.434763,0.013 -0.15333,0.01 -0.306646,0.011 -0.459923,0.017 -0.177143,0.01 -0.354244,0.017 -0.531482,0.022 -0.179129,0 -0.358253,0.01 -0.53733,0.011 -0.184147,0 -0.368287,0.01 -0.552352,0.015 -0.200738,0.01 -0.401413,0.015 -0.602267,0.017 -0.211302,-0 -0.422464,-0.01 -0.633639,-0.015 -0.212431,-0.01 -0.424786,-0.017 -0.637162,-0.026 -0.225041,-0.011 -0.450065,-0.023 -0.675038,-0.035 -0.236499,-0.015 -0.472951,-0.031 -0.70924,-0.049 -0.256873,-0.021 -0.513922,-0.043 -0.769273,-0.078 -0.250671,-0.034 -0.500499,-0.074 -0.74859,-0.1233 -0.26149,-0.053 -0.522635,-0.1078 -0.781027,-0.1743 -0.253181,-0.067 -0.503703,-0.1438 -0.751115,-0.2302 -0.246586,-0.087 -0.493639,-0.1731 -0.735392,-0.273 -0.224213,-0.099 -0.445174,-0.2057 -0.657105,-0.3293 -0.200018,-0.1132 -0.395744,-0.2336 -0.585003,-0.3641 -0.171082,-0.1256 -0.345127,-0.2486 -0.499443,-0.3949 -0.135204,-0.1292 -0.264096,-0.2648 -0.383715,-0.4086 -0.109986,-0.1328 -0.215628,-0.269 -0.317196,-0.4083 -0.09055,-0.131 -0.178746,-0.2636 -0.264724,-0.3977 -0.09145,-0.136 -0.178903,-0.2745 -0.267007,-0.4127 -0.08475,-0.1381 -0.166084,-0.2782 -0.245079,-0.4197 -0.07098,-0.1304 -0.140747,-0.2615 -0.209482,-0.3932 -0.05596,-0.1066 -0.112589,-0.2128 -0.171286,-0.3179 -0.06263,-0.1138 -0.123237,-0.2286 -0.181232,-0.3448 -0.06487,-0.1281 -0.126739,-0.258 -0.17771,-0.3923 -0.0422,-0.1127 -0.08277,-0.226 -0.119432,-0.3406 -0.03471,-0.1093 -0.06808,-0.2191 -0.09655,-0.3301 -0.02634,-0.1151 -0.04977,-0.2308 -0.06065,-0.3485 -0.0093,-0.071 -0.01076,-0.1422 -0.01664,-0.2134 0,0 1.932878,0 1.932878,0 z"
       inkscape:connector-curvature="0" />
    <path
       style="fill:#000000;fill-opacity:1;fill-rule:nonzero;stroke:none;stroke-width:0.99921262;stroke-linecap:round;stroke-miterlimit:4;stroke-dasharray:none;stroke-opacity:1"
       id="path17537"
       d="m 25.241454,1038.0505 c 0.01922,-0.022 0.03845,-0.043 0.05767,-0.065 -0.0019,0 -0.0073,0.01 -0.0058,0.01 0.0068,-0.01 0.02991,-0.039 0.02196,-0.03 -0.05731,0.068 -0.112188,0.1315 -0.176055,0.1933 -0.09824,0.087 -0.207475,0.1597 -0.315602,0.2331 -0.07146,0.043 -0.133135,0.1 -0.196734,0.1532 -0.120433,0.1042 -0.237492,0.2122 -0.356844,0.3176 -0.128888,0.111 -0.258021,0.2215 -0.381217,0.3388 -0.118838,0.1131 -0.226856,0.2365 -0.333214,0.3611 -0.118835,0.1462 -0.238587,0.2917 -0.354208,0.4405 -0.104779,0.1336 -0.194912,0.2777 -0.283318,0.4224 -0.09482,0.1593 -0.173523,0.3274 -0.252584,0.4949 -0.08266,0.1828 -0.157623,0.3691 -0.228771,0.5567 -0.08094,0.2154 -0.164889,0.4296 -0.245369,0.6452 -0.08116,0.2109 -0.160819,0.4225 -0.243085,0.633 -0.07129,0.1764 -0.132484,0.3565 -0.194067,0.5364 -0.06579,0.1983 -0.117015,0.4012 -0.171748,0.6028 -0.06558,0.243 -0.140787,0.4831 -0.216339,0.7232 -0.06567,0.2182 -0.138228,0.4342 -0.209061,0.6508 -0.06895,0.2104 -0.141081,0.4197 -0.21305,0.6291 -0.06801,0.1946 -0.132796,0.3903 -0.196276,0.5865 -0.05772,0.1848 -0.112786,0.3704 -0.162924,0.5574 -0.0486,0.1832 -0.09644,0.3664 -0.138206,0.5512 -0.03977,0.1751 -0.07136,0.3517 -0.101331,0.5287 -0.02963,0.18 -0.05452,0.3608 -0.07584,0.5421 -0.02545,0.2042 -0.0422,0.4094 -0.05749,0.6146 -0.01415,0.2071 -0.02745,0.4142 -0.0442,0.6211 -0.01537,0.1838 -0.02951,0.3677 -0.04263,0.5516 -0.01168,0.1646 -0.02163,0.3293 -0.03092,0.4941 -0.0099,0.1574 -0.01613,0.315 -0.02353,0.4725 -0.0067,0.1544 -0.01166,0.3089 -0.01637,0.4634 -0.0024,0.1395 -0.01099,0.2791 -0.0092,0.4186 -0.0013,0.043 0.0021,0.087 0.0068,0.1297 0,0 -1.892637,0.1413 -1.892637,0.1413 l 0,0 c -0.006,-0.093 -0.01138,-0.186 -0.0092,-0.2793 0.0022,-0.158 0.008,-0.3159 0.01353,-0.4738 0.0059,-0.1612 0.01229,-0.3225 0.01934,-0.4837 0.007,-0.1677 0.01664,-0.3353 0.02589,-0.5028 0.01125,-0.1747 0.02331,-0.3493 0.03745,-0.5238 0.01543,-0.1893 0.03202,-0.3785 0.0498,-0.5677 0.01831,-0.2026 0.03148,-0.4057 0.04863,-0.6084 0.01894,-0.2286 0.03734,-0.4572 0.06032,-0.6854 0.02482,-0.2135 0.05083,-0.427 0.08723,-0.6389 0.03612,-0.2122 0.0756,-0.4239 0.124034,-0.6336 0.04856,-0.2092 0.100253,-0.4176 0.158142,-0.6244 0.05936,-0.2153 0.121521,-0.4298 0.189805,-0.6425 0.06786,-0.2091 0.138043,-0.4174 0.210397,-0.625 0.0707,-0.1997 0.137175,-0.4009 0.20488,-0.6017 0.07011,-0.2089 0.140691,-0.4177 0.20609,-0.6281 0.06867,-0.2137 0.137863,-0.4272 0.195386,-0.6442 0.0649,-0.2408 0.122025,-0.4838 0.195877,-0.7221 0.07059,-0.2073 0.144416,-0.4135 0.228081,-0.6159 0.07965,-0.2007 0.15658,-0.4024 0.236679,-0.6029 0.08209,-0.2181 0.166315,-0.4354 0.247367,-0.6539 0.08846,-0.2319 0.178846,-0.4632 0.282116,-0.689 0.106093,-0.2262 0.214735,-0.4516 0.342887,-0.6664 0.126179,-0.2108 0.258093,-0.4184 0.409446,-0.6124 0.132107,-0.1674 0.265532,-0.3337 0.400788,-0.4986 0.147629,-0.1741 0.300129,-0.3442 0.463753,-0.5036 0.140537,-0.135 0.285414,-0.2651 0.432933,-0.3925 0.123743,-0.1095 0.240287,-0.2268 0.363349,-0.3371 0.115301,-0.1037 0.229881,-0.2086 0.358955,-0.2953 0.02337,-0.016 0.197147,-0.1499 0.07744,-0.055 -0.03086,0.031 -0.02584,0.024 -0.05467,0.059 -0.0065,0.01 -0.02477,0.033 -0.01899,0.024 0.03914,-0.057 0.07928,-0.1078 0.127143,-0.1585 0,0 1.367246,1.3672 1.367246,1.3672 z"
       inkscape:connector-curvature="0" />
    <path
       style="fill:#000000;fill-opacity:1;fill-rule:nonzero;stroke:none;stroke-width:0.99921262;stroke-linecap:round;stroke-miterlimit:4;stroke-dasharray:none;stroke-opacity:1"
       id="path17535"
       d="m 25.837763,1036.9486 c 0.0047,0.026 0.04107,0.1169 0.02381,0.075 0.03159,0.07 0.0614,0.1407 0.09032,0.2118 0.03085,0.081 0.06161,0.1621 0.09661,0.2414 0.04244,0.095 0.0864,0.1904 0.131025,0.2849 0.05706,0.1179 0.11415,0.2358 0.16855,0.355 0.05774,0.1235 0.111531,0.2487 0.167164,0.3731 0.06071,0.1329 0.114628,0.2688 0.171008,0.4035 0.05844,0.1395 0.115834,0.2795 0.172204,0.4198 0.05664,0.1372 0.112587,0.2746 0.168985,0.4118 0.06333,0.1532 0.125096,0.307 0.187634,0.4605 0.06564,0.1569 0.126263,0.3158 0.18898,0.4739 0.063,0.1566 0.125689,0.3133 0.184432,0.4715 0.06815,0.1801 0.125409,0.3638 0.182678,0.5475 0.05697,0.1892 0.107103,0.3804 0.15757,0.5714 0.05443,0.2045 0.105141,0.4101 0.159175,0.6148 0.05561,0.1994 0.109504,0.3992 0.158896,0.6002 0.04474,0.1915 0.09311,0.3821 0.141408,0.5727 0.0572,0.2165 0.112201,0.4335 0.164656,0.6512 0.05553,0.2204 0.103184,0.4426 0.155186,0.6638 0.05823,0.238 0.112639,0.477 0.165987,0.7161 0.05375,0.2316 0.104407,0.4638 0.152184,0.6967 0.04543,0.2196 0.08961,0.4394 0.130717,0.6598 0.04217,0.2207 0.0871,0.4408 0.130618,0.6612 0.04197,0.2118 0.07938,0.4244 0.114565,0.6375 0.03321,0.1752 0.06474,0.3507 0.09412,0.5266 0.0285,0.1715 0.05267,0.3436 0.07519,0.5159 0.02266,0.1753 0.04085,0.351 0.05166,0.5273 0.0091,0.1616 0.01599,0.3233 0.02246,0.485 0.0049,0.1559 0.003,0.3119 0.002,0.4678 -6.21e-4,0.1368 -0.0021,0.2736 -0.0033,0.4103 -4.59e-4,0.1239 -0.0041,0.2477 0.003,0.3713 0,0 -1.899198,0.059 -1.899198,0.059 l 0,0 c -0.002,-0.1478 -0.0015,-0.2955 7e-5,-0.4432 6.71e-4,-0.1378 0.0013,-0.2755 0.0031,-0.4133 0.0013,-0.127 0.0028,-0.2541 0.003,-0.3811 -0.005,-0.1459 -0.01017,-0.2917 -0.01832,-0.4375 -0.0088,-0.1361 -0.02237,-0.2717 -0.03989,-0.407 -0.01858,-0.1511 -0.03853,-0.302 -0.06201,-0.4523 -0.02791,-0.178 -0.05875,-0.3555 -0.0879,-0.5333 -0.02952,-0.1936 -0.06085,-0.3869 -0.09659,-0.5794 -0.0415,-0.2222 -0.08713,-0.4435 -0.130406,-0.6654 -0.04168,-0.2147 -0.08493,-0.4291 -0.128227,-0.6435 -0.04242,-0.2202 -0.0886,-0.4397 -0.139135,-0.6582 -0.05004,-0.2273 -0.102004,-0.4542 -0.158646,-0.6799 -0.05489,-0.2209 -0.103482,-0.4433 -0.159062,-0.664 -0.05034,-0.2071 -0.103689,-0.4134 -0.160911,-0.6187 -0.0535,-0.2005 -0.104199,-0.4016 -0.152771,-0.6034 -0.04534,-0.1909 -0.09558,-0.3805 -0.147935,-0.5696 -0.05035,-0.196 -0.09899,-0.3924 -0.15508,-0.5869 -0.04857,-0.1699 -0.09278,-0.3411 -0.144315,-0.5102 -0.04692,-0.1499 -0.09508,-0.2996 -0.153612,-0.4455 -0.05578,-0.1472 -0.111513,-0.2943 -0.17043,-0.4402 -0.06043,-0.1529 -0.119224,-0.3065 -0.183597,-0.4579 -0.05984,-0.1476 -0.12016,-0.295 -0.182582,-0.4416 -0.06126,-0.1443 -0.119084,-0.2899 -0.180694,-0.4341 -0.05245,-0.1297 -0.106741,-0.2588 -0.160149,-0.3881 -0.05227,-0.1222 -0.102446,-0.2452 -0.15796,-0.366 -0.0537,-0.1194 -0.105066,-0.2398 -0.161335,-0.3581 -0.05083,-0.1099 -0.105545,-0.2179 -0.160276,-0.3259 -0.05089,-0.1055 -0.100881,-0.2114 -0.149997,-0.3178 -0.04184,-0.091 -0.08178,-0.1829 -0.120982,-0.2752 -0.0227,-0.052 -0.04548,-0.1031 -0.07045,-0.1537 -0.02926,-0.064 -0.05467,-0.1317 -0.08552,-0.1952 -0.0039,-0.01 0.0054,0.017 0.0081,0.025 0,0 1.794301,-0.7177 1.794301,-0.7177 z"
       inkscape:connector-curvature="0" />
    <path
       style="fill:#000000;fill-opacity:1;fill-rule:nonzero;stroke:none;stroke-width:0.99921262;stroke-linecap:round;stroke-miterlimit:4;stroke-dasharray:none;stroke-opacity:1"
       id="path17533"
       d="m 25.778939,1019.4325 c -0.0059,0.052 -0.0074,0.1036 -0.0087,0.1555 -0.0024,0.098 -0.0039,0.1962 -0.0065,0.2942 -0.0026,0.113 9.24e-4,0.2261 0.0091,0.3388 0.01981,0.1876 0.03859,0.3753 0.05636,0.5631 0.0186,0.222 0.03223,0.4444 0.04564,0.6667 0.01415,0.2229 0.02562,0.4459 0.03455,0.6689 0.0096,0.2329 0.01587,0.4659 0.02328,0.6988 0.0084,0.2326 0.01384,0.4652 0.01421,0.6979 0.0012,0.2246 -0.0091,0.449 -0.01514,0.6734 -0.0039,0.2213 -0.01502,0.4423 -0.02486,0.6634 -0.01302,0.2157 -0.02778,0.4313 -0.04257,0.6468 -0.01219,0.2368 -0.02951,0.4732 -0.0488,0.7094 -0.02245,0.2527 -0.05283,0.5048 -0.08837,0.756 -0.03672,0.2525 -0.06841,0.5057 -0.0973,0.7592 -0.02701,0.2389 -0.04862,0.4784 -0.06885,0.7179 -0.01807,0.2168 -0.03452,0.4336 -0.04975,0.6506 -0.01573,0.1913 -0.0221,0.3828 -0.02243,0.5747 -0.0012,0.1979 0.0078,0.3958 0.01512,0.5936 0.0091,0.1945 0.02072,0.3889 0.03034,0.5833 0.01093,0.2061 0.0174,0.4124 0.02523,0.6186 0.0057,0.2124 0.01179,0.4247 0.01831,0.637 0.0058,0.1948 0.01201,0.3896 0.01605,0.5844 0.0044,0.1834 0.0081,0.3668 0.01055,0.5503 2.84e-4,0.1951 0.0026,0.3902 0.0049,0.5854 0.0016,0.1967 0.003,0.3934 0.0052,0.5901 0.0048,0.1952 5.29e-4,0.3905 -0.0044,0.5857 -0.0058,0.1875 -0.0095,0.375 -0.01235,0.5625 -0.0025,0.176 -0.0045,0.352 -0.0064,0.5281 -0.0011,0.1755 -0.0085,0.351 -0.01887,0.5263 -0.01057,0.1444 -0.02243,0.2886 -0.03289,0.433 -0.01293,0.1435 -0.02827,0.2868 -0.04157,0.4302 -0.01113,0.1021 -0.01395,0.2049 -0.0172,0.3075 0,0 -1.890996,-0.055 -1.890996,-0.055 l 0,0 c 0.0039,-0.1436 0.0062,-0.2875 0.01953,-0.4306 0.01255,-0.1311 0.02638,-0.262 0.0396,-0.393 0.01079,-0.1409 0.02255,-0.2817 0.03502,-0.4225 0.01212,-0.1411 0.01686,-0.2828 0.02075,-0.4243 0.0035,-0.1785 0.0072,-0.3569 0.01137,-0.5354 0.0044,-0.1904 0.0082,-0.3808 0.0116,-0.5713 0.0039,-0.1757 0.0093,-0.3513 0.0067,-0.5271 -7.23e-4,-0.1949 -0.0024,-0.3899 -0.0048,-0.5848 -0.0016,-0.192 -0.0035,-0.384 -0.0089,-0.5759 -0.0031,-0.1802 -0.0055,-0.3604 -0.0085,-0.5406 -0.0039,-0.1915 -0.0063,-0.383 -0.01038,-0.5744 -0.0043,-0.206 -0.0094,-0.412 -0.01827,-0.6179 -0.0067,-0.1975 -0.01571,-0.3949 -0.02522,-0.5923 -0.01045,-0.2062 -0.02191,-0.4124 -0.03124,-0.6186 -0.0056,-0.2198 -0.01307,-0.4397 -0.01292,-0.6596 0.0013,-0.2338 0.0072,-0.4672 0.02943,-0.7001 0.01652,-0.2296 0.03464,-0.4591 0.05779,-0.6881 0.02501,-0.2541 0.05066,-0.5081 0.07981,-0.7617 0.03081,-0.2621 0.06417,-0.5238 0.09945,-0.7854 0.02595,-0.2242 0.05298,-0.4484 0.07239,-0.6732 0.01933,-0.2202 0.03275,-0.4408 0.04223,-0.6617 0.01038,-0.209 0.0252,-0.4177 0.03892,-0.6266 0.01068,-0.2088 0.02168,-0.4177 0.02558,-0.6268 0.0062,-0.207 0.01209,-0.4141 0.01324,-0.6212 5.59e-4,-0.2134 5.14e-4,-0.4267 -0.0082,-0.64 -0.0066,-0.2243 -0.01523,-0.4485 -0.02565,-0.6726 -0.01045,-0.2121 -0.02052,-0.4243 -0.03317,-0.6363 -0.01284,-0.2014 -0.02717,-0.4027 -0.04787,-0.6035 -0.01797,-0.1854 -0.03967,-0.3703 -0.06329,-0.5551 -0.01944,-0.1746 -0.03329,-0.35 -0.03368,-0.5259 -0.0025,-0.098 -0.0041,-0.1961 -0.0065,-0.2942 -0.0013,-0.052 -0.0028,-0.1039 -0.0087,-0.1555 0,0 1.932878,0 1.932878,0 z"
       inkscape:connector-curvature="0" />
    <circle
       style="fill:#000000;fill-opacity:1;fill-rule:nonzero;stroke:none;stroke-width:0.99921262;stroke-linecap:round;stroke-miterlimit:4;stroke-dasharray:none;stroke-opacity:1"
       id="path17504"
       cx="36"
       cy="1020.3622"
       r="2" />
    <circle
       style="fill:#000000;fill-opacity:1;fill-rule:nonzero;stroke:none;stroke-width:0.99921262;stroke-linecap:round;stroke-miterlimit:4;stroke-dasharray:none;stroke-opacity:1"
       id="path17504-0"
       cx="12"
       cy="1020.3622"
       r="2" />
    <path
       style="fill:#000000;fill-opacity:1;fill-rule:nonzero;stroke:none;stroke-width:0.99921262;stroke-linecap:round;stroke-miterlimit:4;stroke-dasharray:none;stroke-opacity:1"
       id="path17531"
       d="m 23.755756,1018.2255 c 0.127145,-0.021 0.256288,-0.017 0.384621,-0.016 0.182944,0 0.365865,-0 0.548783,-0 0.175074,-0 0.34961,-0.016 0.524192,-0.029 0.169426,-0.017 0.33909,-0.031 0.508341,-0.05 0.155154,-0.015 0.309374,-0.039 0.462893,-0.066 0.15035,-0.026 0.299187,-0.059 0.4473,-0.096 0.140444,-0.035 0.278647,-0.077 0.416327,-0.121 0.136815,-0.047 0.272964,-0.095 0.405937,-0.1521 0.140702,-0.057 0.277824,-0.1216 0.414229,-0.188 0.120596,-0.06 0.238881,-0.1243 0.354808,-0.1927 0.09427,-0.06 0.188116,-0.1207 0.279295,-0.1855 0.0787,-0.056 0.152684,-0.1183 0.221523,-0.1862 0.06845,-0.066 0.129679,-0.1381 0.186544,-0.2138 0.05891,-0.084 0.11258,-0.1714 0.162418,-0.2613 0.06795,-0.1291 0.129062,-0.2617 0.185501,-0.3962 0.06229,-0.1498 0.122453,-0.3003 0.17578,-0.4535 0.05657,-0.1554 0.105535,-0.3132 0.149026,-0.4727 0.04151,-0.1496 0.07375,-0.3013 0.09983,-0.4543 0.02504,-0.1498 0.04569,-0.3003 0.06509,-0.4509 0.01258,-0.1311 0.02214,-0.2624 0.03068,-0.3939 0.01065,-0.1512 0.01814,-0.3026 0.02649,-0.4539 0.0091,-0.1606 0.01203,-0.3214 0.0082,-0.4822 -0.0024,-0.1444 -0.0149,-0.2886 -0.03542,-0.4315 -0.01968,-0.1332 -0.05789,-0.2628 -0.09508,-0.3919 -0.03899,-0.1465 -0.08718,-0.2901 -0.138018,-0.4328 -0.05106,-0.1328 -0.102338,-0.266 -0.163006,-0.3948 -0.07201,-0.1459 -0.149324,-0.2891 -0.229542,-0.4307 -0.08568,-0.1501 -0.174641,-0.2982 -0.267801,-0.4438 -0.09324,-0.1484 -0.18935,-0.2949 -0.289521,-0.4386 -0.09201,-0.1327 -0.192461,-0.2593 -0.29824,-0.3812 -0.112889,-0.1331 -0.237703,-0.2552 -0.363678,-0.3757 -0.147003,-0.1447 -0.306931,-0.275 -0.46502,-0.4071 -0.165578,-0.1436 -0.346265,-0.2676 -0.529686,-0.387 -0.181927,-0.1168 -0.375452,-0.2136 -0.571597,-0.3038 -0.206179,-0.094 -0.419811,-0.1686 -0.635108,-0.2379 -0.235303,-0.075 -0.476231,-0.1302 -0.717875,-0.1805 -0.273784,-0.056 -0.549921,-0.1 -0.82663,-0.1389 -0.287371,-0.041 -0.576244,-0.068 -0.865395,-0.092 -0.262099,-0.022 -0.524807,-0.017 -0.78725,-0.01 -0.23243,0.01 -0.463918,0.029 -0.694118,0.061 -0.177149,0.027 -0.349321,0.077 -0.51962,0.1319 -0.156517,0.047 -0.304026,0.1135 -0.447071,0.1911 -0.131827,0.072 -0.250891,0.1626 -0.368216,0.2552 -0.139567,0.1107 -0.269052,0.2334 -0.399461,0.3545 -0.112604,0.107 -0.219944,0.2191 -0.318571,0.339 -0.107568,0.1298 -0.214798,0.2602 -0.31067,0.3989 -0.09487,0.1505 -0.174222,0.3102 -0.251499,0.4703 -0.08694,0.1769 -0.163651,0.3587 -0.23573,0.5421 -0.06968,0.1727 -0.117143,0.3525 -0.158866,0.5336 -0.0485,0.2179 -0.08615,0.438 -0.122731,0.6582 -0.0269,0.1891 -0.03788,0.3799 -0.0404,0.5707 -0.0039,0.1966 0.0099,0.3927 0.02572,0.5884 0.01678,0.1881 0.03802,0.3758 0.06913,0.5621 0.03192,0.185 0.07793,0.3673 0.121628,0.5498 0.04602,0.1757 0.09508,0.3505 0.147772,0.5243 0.05327,0.1699 0.110658,0.3386 0.170753,0.5062 0.05428,0.1487 0.116193,0.2944 0.18114,0.4387 0.06006,0.1311 0.125872,0.2592 0.200068,0.3828 0.07873,0.1277 0.171059,0.2468 0.266149,0.3627 0.113962,0.1395 0.235911,0.2721 0.357452,0.4049 0.107762,0.1168 0.219782,0.2293 0.33582,0.3378 0.114669,0.1027 0.232789,0.2015 0.355014,0.295 0.112149,0.091 0.231239,0.1728 0.350151,0.2547 0.120477,0.079 0.243637,0.1528 0.368409,0.2243 0.151439,0.086 0.306218,0.1661 0.461123,0.2456 0.149332,0.074 0.297865,0.1496 0.448453,0.2211 0.138879,0.067 0.277513,0.1351 0.417952,0.1991 0.116294,0.052 0.236594,0.095 0.356187,0.1389 0.114444,0.042 0.231057,0.078 0.348406,0.1109 0.106758,0.028 0.213524,0.058 0.322473,0.076 0.09345,0.016 0.187294,0.029 0.281819,0.036 0.09111,0.01 0.182683,0.01 0.274013,0.01 0.09128,-0 0.182973,-0 0.274054,-0.012 0.05336,-0 0.03055,-0 0.06863,-0.01 0,0 0.216389,1.8921 0.216389,1.8921 l 0,0 c -0.110391,0.011 -0.05836,0.01 -0.156036,0.014 -0.139819,0.01 -0.279867,0.015 -0.419934,0.016 -0.14249,-0 -0.285199,-0 -0.427165,-0.016 -0.158463,-0.015 -0.316235,-0.037 -0.472643,-0.067 -0.162586,-0.033 -0.324226,-0.071 -0.483817,-0.1171 -0.162868,-0.047 -0.324671,-0.098 -0.483498,-0.1578 -0.16562,-0.062 -0.332045,-0.1221 -0.49243,-0.1968 -0.149065,-0.07 -0.297054,-0.1415 -0.443621,-0.2163 -0.165826,-0.081 -0.330146,-0.1648 -0.494552,-0.2485 -0.172938,-0.09 -0.346286,-0.1795 -0.516167,-0.2753 -0.175678,-0.097 -0.349288,-0.1979 -0.516465,-0.3088 -0.151313,-0.1034 -0.301025,-0.2091 -0.441972,-0.3265 -0.163022,-0.1289 -0.322327,-0.2625 -0.475954,-0.4026 -0.15497,-0.1434 -0.30389,-0.2928 -0.444496,-0.4504 -0.144724,-0.1595 -0.28833,-0.32 -0.423909,-0.4874 -0.151811,-0.188 -0.304471,-0.377 -0.429549,-0.5842 -0.109492,-0.1855 -0.210501,-0.3758 -0.29884,-0.5724 -0.08585,-0.191 -0.16391,-0.3854 -0.235286,-0.5823 -0.06921,-0.1966 -0.136574,-0.3939 -0.196729,-0.5935 -0.06255,-0.2089 -0.122419,-0.4187 -0.175007,-0.6303 -0.0533,-0.224 -0.104424,-0.4487 -0.143307,-0.6756 -0.04068,-0.2418 -0.06752,-0.4856 -0.08792,-0.7299 -0.01847,-0.2555 -0.03417,-0.5116 -0.02768,-0.7679 0.0069,-0.2817 0.02534,-0.5633 0.06684,-0.8422 0.0433,-0.2562 0.09237,-0.5114 0.146549,-0.7655 0.06171,-0.2711 0.128032,-0.5415 0.234507,-0.7992 0.08983,-0.2303 0.186653,-0.4579 0.294951,-0.6801 0.117323,-0.2394 0.239981,-0.4763 0.383648,-0.7012 0.129027,-0.1921 0.267437,-0.3776 0.418208,-0.5534 0.151787,-0.1803 0.313423,-0.3515 0.486774,-0.5115 0.168361,-0.1553 0.33591,-0.3122 0.516032,-0.454 0.20563,-0.1605 0.417777,-0.3136 0.649815,-0.4343 0.245479,-0.1281 0.498531,-0.24 0.764528,-0.319 0.274143,-0.085 0.551946,-0.1612 0.837596,-0.1958 0.293303,-0.036 0.587806,-0.059 0.883322,-0.066 0.332251,-0.01 0.664687,-0.01 0.996359,0.018 0.320377,0.028 0.640187,0.062 0.958685,0.1062 0.319326,0.043 0.638182,0.089 0.953951,0.1533 0.305156,0.063 0.610416,0.1294 0.90777,0.2238 0.288002,0.092 0.572778,0.1946 0.847925,0.3205 0.278885,0.1294 0.55471,0.2667 0.812149,0.4357 0.240029,0.1585 0.479631,0.3189 0.700462,0.5038 0.191806,0.1574 0.383472,0.3153 0.563847,0.4859 0.172471,0.1626 0.341919,0.3287 0.496517,0.5087 0.14717,0.1715 0.291001,0.346 0.418663,0.5328 0.114739,0.1647 0.227397,0.3308 0.331985,0.5022 0.11058,0.1738 0.21807,0.3494 0.319204,0.5289 0.103259,0.1827 0.204686,0.3666 0.297146,0.555 0.08685,0.1847 0.166506,0.3728 0.235667,0.5648 0.06444,0.1815 0.125171,0.3643 0.17426,0.5506 0.06029,0.2154 0.117491,0.4322 0.148563,0.6541 0.02804,0.2153 0.04887,0.4318 0.05145,0.6491 0.0029,0.1988 0.0021,0.3978 -0.0062,0.5965 -0.0051,0.1672 -0.013,0.3344 -0.02322,0.5014 -0.01198,0.1723 -0.02338,0.3449 -0.04604,0.5163 -0.02458,0.1793 -0.05082,0.3585 -0.08326,0.5366 -0.03913,0.2079 -0.08407,0.4148 -0.14043,0.6187 -0.05531,0.1994 -0.114767,0.3976 -0.185656,0.592 -0.06663,0.1913 -0.13996,0.38 -0.216911,0.5674 -0.08084,0.1909 -0.168387,0.379 -0.263903,0.563 -0.09617,0.1802 -0.196501,0.3586 -0.320961,0.5213 -0.117084,0.1494 -0.240336,0.2944 -0.377912,0.4255 -0.138103,0.1299 -0.282061,0.2532 -0.436378,0.3637 -0.140402,0.099 -0.284371,0.1925 -0.432204,0.2799 -0.156663,0.088 -0.315267,0.1727 -0.477162,0.2507 -0.166696,0.079 -0.333281,0.1591 -0.504279,0.2287 -0.181935,0.075 -0.367333,0.1407 -0.552892,0.2061 -0.182278,0.059 -0.366366,0.1128 -0.552756,0.1581 -0.189088,0.045 -0.378793,0.088 -0.570865,0.1196 -0.194862,0.033 -0.390134,0.065 -0.587121,0.083 -0.191143,0.02 -0.382607,0.036 -0.57406,0.053 -0.206292,0.014 -0.412744,0.026 -0.619475,0.031 -0.171537,0 -0.34321,0.01 -0.514352,0.021 -0.01253,0 -0.175829,0.021 -0.07604,0.015 0,0 -0.379051,-1.8953 -0.379051,-1.8953 z"
       inkscape:connector-curvature="0" />
    <path
       style="fill:#000000;fill-opacity:1;fill-rule:nonzero;stroke:none;stroke-width:0.99921262;stroke-linecap:round;stroke-miterlimit:4;stroke-dasharray:none;stroke-opacity:1"
       id="path17539"
       d="m 36.486515,1021.8632 c 0.0061,-0.014 0.02578,-0.056 0.01835,-0.042 -0.118085,0.2126 0.03144,-0.046 -0.07304,0.1418 0.03296,-0.072 -0.03863,0.084 -0.04402,0.096 -0.0279,0.06 -0.05427,0.1198 -0.08018,0.1802 -0.03172,0.078 -0.06474,0.155 -0.09709,0.2325 -0.03619,0.09 -0.07331,0.1796 -0.111556,0.2687 -0.03587,0.094 -0.08053,0.1838 -0.120248,0.2759 -0.04093,0.1025 -0.0843,0.2039 -0.124564,0.3066 -0.05268,0.1316 -0.108363,0.262 -0.169684,0.3899 -0.05733,0.1192 -0.119198,0.2361 -0.182089,0.3524 -0.06272,0.1225 -0.135214,0.2394 -0.208259,0.3558 -0.0677,0.1166 -0.145663,0.2265 -0.218423,0.3398 -0.06883,0.1075 -0.141213,0.2127 -0.21103,0.3195 -0.07096,0.1081 -0.145092,0.2139 -0.21929,0.3198 -0.06066,0.08 -0.115453,0.1634 -0.17017,0.2473 -0.05896,0.086 -0.117136,0.1726 -0.173149,0.2607 -0.07828,0.1196 -0.161616,0.236 -0.24662,0.3509 -0.06966,0.096 -0.139726,0.191 -0.20977,0.2864 -0.09899,0.1363 -0.210673,0.2618 -0.33001,0.3805 -0.114319,0.112 -0.236859,0.2151 -0.35972,0.3175 -0.153017,0.1342 -0.319001,0.2512 -0.490925,0.3596 -0.175771,0.1108 -0.363314,0.2 -0.555006,0.2792 -0.193673,0.081 -0.396009,0.1368 -0.599727,0.1855 -0.194724,0.044 -0.39211,0.075 -0.590464,0.097 -0.243452,0.027 -0.48709,0.012 -0.729787,-0.013 -0.221986,-0.026 -0.444428,-0.048 -0.667245,-0.065 -0.239078,-0.016 -0.47785,-0.037 -0.716784,-0.055 -0.214943,-0.016 -0.42997,-0.031 -0.645103,-0.044 -0.220074,-0.012 -0.43932,-0.034 -0.658538,-0.056 -0.2123,-0.02 -0.424276,-0.044 -0.636044,-0.069 -0.18892,-0.027 -0.37899,-0.042 -0.569123,-0.056 -0.194382,-0.013 -0.388951,-0.024 -0.583504,-0.034 -0.185179,-0.01 -0.370459,-0.017 -0.555744,-0.024 -0.179414,-0 -0.358486,-0.016 -0.537572,-0.027 -0.170986,-0.01 -0.341623,-0.023 -0.511873,-0.041 0,0 0.217197,-1.8814 0.217197,-1.8814 l 0,0 c 0.139172,0.019 0.279372,0.029 0.419421,0.038 0.164202,0.012 0.328355,0.024 0.492908,0.03 0.192367,0.01 0.384701,0.019 0.576992,0.03 0.206807,0.011 0.413487,0.024 0.620024,0.04 0.219304,0.016 0.438497,0.034 0.656387,0.064 0.197855,0.024 0.396134,0.046 0.594383,0.067 0.199917,0.019 0.399752,0.04 0.600346,0.051 0.223856,0.016 0.447681,0.033 0.671233,0.053 0.236804,0.02 0.473579,0.041 0.710739,0.056 0.233017,0.018 0.466082,0.036 0.69882,0.057 0.11522,0.01 0.230547,0.015 0.345908,0 0.119268,-0.013 0.237889,-0.03 0.355453,-0.054 0.108491,-0.026 0.217292,-0.053 0.320433,-0.096 0.09499,-0.039 0.188048,-0.083 0.276,-0.1363 0.09488,-0.058 0.184936,-0.1224 0.266966,-0.1977 0.08684,-0.075 0.172126,-0.1529 0.254556,-0.2333 0.05201,-0.043 0.08589,-0.1052 0.130508,-0.1551 0.07237,-0.097 0.144865,-0.1938 0.216449,-0.2913 0.05829,-0.076 0.109322,-0.1571 0.162843,-0.2364 0.06117,-0.096 0.121967,-0.192 0.187729,-0.2848 0.06687,-0.101 0.13354,-0.2023 0.207319,-0.2985 0.06227,-0.088 0.124955,-0.1746 0.184515,-0.264 0.06736,-0.1023 0.136698,-0.2032 0.204059,-0.3055 0.06655,-0.1029 0.136808,-0.2034 0.198743,-0.3093 0.05385,-0.089 0.10738,-0.1782 0.154354,-0.271 0.04886,-0.087 0.09383,-0.1765 0.138341,-0.2659 0.04136,-0.084 0.07619,-0.1715 0.112855,-0.2579 0.04591,-0.1168 0.09373,-0.2328 0.139649,-0.3495 0.03999,-0.096 0.08165,-0.1923 0.119418,-0.2896 0.03407,-0.08 0.06772,-0.1596 0.09904,-0.2405 0.03263,-0.081 0.06616,-0.1615 0.09831,-0.2426 0.03026,-0.074 0.06077,-0.1486 0.092,-0.2226 0.03363,-0.083 0.04873,-0.1139 0.08667,-0.1977 0.05285,-0.1064 -0.05613,0.1183 0.0267,-0.057 0.0043,-0.01 0.01767,-0.036 0.01331,-0.027 -0.04343,0.091 -0.03415,0.072 -0.0018,-0 0,0 1.729255,0.8646 1.729255,0.8646 z"
       inkscape:connector-curvature="0" />
  </g>
</svg>
